if (_typeface_js && _typeface_js.loadFace) _typeface_js.loadFace({"glyphs":{"ο":{"x_min":68,"x_max":854,"ha":862,"o":"m 374 -25 q 149 57 230 -25 q 68 275 68 140 q 79 372 68 319 q 245 660 116 545 q 545 775 373 775 q 772 691 690 775 q 854 472 854 608 q 842 372 854 427 q 675 87 805 200 q 374 -25 545 -25 m 409 141 q 560 216 496 141 q 635 373 616 282 q 644 444 644 409 q 613 557 644 513 q 508 607 577 607 q 358 530 423 607 q 283 373 304 466 q 276 305 276 336 q 305 191 276 233 q 409 141 340 141 "},"S":{"x_min":65,"x_max":948,"ha":915,"o":"m 891 307 q 713 55 857 149 q 417 -29 582 -29 q 167 47 264 -29 q 65 268 65 128 q 65 290 65 279 q 67 318 65 302 l 276 318 q 275 297 275 311 q 336 188 275 228 q 469 152 391 152 q 598 181 540 152 q 683 282 669 217 q 686 308 686 302 q 551 413 686 378 q 301 478 309 475 q 165 653 165 533 q 171 720 165 688 q 341 959 203 868 q 621 1041 466 1041 q 856 967 764 1041 q 948 765 948 894 q 943 714 948 742 l 743 714 q 745 732 745 721 q 697 832 745 797 q 577 867 649 867 q 456 839 510 867 q 376 743 390 804 q 373 719 373 726 q 509 617 373 651 q 761 553 757 554 q 897 375 897 497 q 897 342 897 360 q 891 307 897 325 "},"¦":{"x_min":-51.390625,"x_max":354.171875,"ha":240,"o":"m 241 463 l 98 463 l 211 985 l 354 985 l 241 463 m 91 -242 l -51 -242 l 59 280 l 202 280 l 91 -242 "},"/":{"x_min":168.0625,"x_max":854.171875,"ha":828,"o":"m 854 1041 l 261 -129 l 168 -129 l 759 1041 l 854 1041 "},"Τ":{"x_min":177.78125,"x_max":1025,"ha":878,"o":"m 986 831 l 686 831 l 508 0 l 298 0 l 476 831 l 177 831 l 216 1013 l 1025 1013 l 986 831 "},"y":{"x_min":62.890625,"x_max":899,"ha":828,"o":"m 899 749 l 422 -105 q 310 -235 371 -195 q 154 -275 249 -275 q 105 -275 132 -275 q 62 -270 78 -275 l 97 -109 q 124 -112 111 -110 q 154 -115 136 -115 q 265 -16 246 -115 q 244 174 268 -2 q 196 515 219 351 q 160 749 178 632 l 399 749 l 399 207 l 689 749 l 899 749 "},"Π":{"x_min":0,"x_max":1026.390625,"ha":922,"o":"m 809 0 l 598 0 l 777 837 l 387 837 l 208 1 l 0 1 l 216 1013 l 1026 1013 l 809 0 "},"ΐ":{"x_min":0,"x_max":566.671875,"ha":364,"o":"m 537 810 l 408 810 l 437 952 l 566 952 l 537 810 m 529 1064 l 259 810 l 161 810 l 351 1064 l 529 1064 m 140 810 l 11 810 l 40 952 l 169 952 l 140 810 m 200 0 l 0 0 l 159 749 l 359 749 l 200 0 "},"g":{"x_min":7,"x_max":882.65625,"ha":838,"o":"m 732 48 q 589 -223 692 -142 q 291 -304 485 -304 q 95 -259 170 -304 q 7 -102 7 -206 q 8 -71 7 -82 l 227 -71 q 261 -127 231 -110 q 337 -144 291 -144 q 485 -82 438 -144 q 543 71 520 -38 l 550 104 q 445 25 506 51 q 318 0 385 0 q 128 79 193 0 q 69 272 69 151 q 71 330 69 312 q 80 378 73 347 q 216 647 113 533 q 481 775 331 775 q 672 657 621 775 l 692 749 l 882 749 l 732 48 m 403 167 q 542 237 482 167 q 610 382 592 297 q 616 425 616 412 q 616 447 616 439 q 589 555 616 515 q 492 603 557 603 q 352 532 412 603 q 282 386 300 472 q 277 354 278 364 q 276 322 276 344 q 303 214 276 254 q 403 167 337 167 "},"²":{"x_min":81.9375,"x_max":636,"ha":560,"o":"m 631 792 q 500 627 613 707 q 254 483 376 555 l 558 483 l 537 382 l 81 382 q 208 565 105 488 q 388 672 227 579 q 498 785 486 728 q 500 804 500 792 q 476 855 500 836 q 418 875 452 875 q 347 850 377 875 q 294 763 309 819 l 172 763 q 283 924 202 868 q 444 976 356 976 q 580 935 524 976 q 636 825 636 894 q 631 792 636 808 "},"–":{"x_min":63.890625,"x_max":800,"ha":801,"o":"m 768 297 l 63 297 l 95 450 l 800 450 l 768 297 "},"Κ":{"x_min":0,"x_max":1080.5625,"ha":969,"o":"m 900 0 l 647 0 l 415 462 l 284 355 l 208 0 l 0 0 l 216 1013 l 425 1013 l 336 596 l 820 1013 l 1080 1013 l 590 603 l 900 0 "},"ƒ":{"x_min":-105.5625,"x_max":656.953125,"ha":525,"o":"m 570 609 l 447 609 l 90 -277 l -105 -277 l 251 609 l 144 609 l 173 749 l 280 749 q 362 950 311 894 q 562 1017 425 1017 l 656 1017 l 623 856 l 561 856 q 494 826 511 856 q 475 749 490 818 l 600 749 l 570 609 "},"e":{"x_min":67,"x_max":805,"ha":809,"o":"m 777 321 l 275 321 q 271 295 272 309 q 270 269 270 280 q 304 174 270 207 q 390 140 338 140 q 548 227 482 140 l 749 227 q 574 36 686 104 q 356 -26 471 -26 q 153 46 232 -26 q 67 264 67 125 q 79 369 67 312 q 242 684 122 574 q 528 794 361 794 q 734 725 663 794 q 805 517 805 657 q 777 321 805 435 m 599 453 q 603 476 602 462 q 605 500 605 490 q 572 584 605 555 q 485 613 539 613 q 370 571 420 613 q 306 453 321 529 l 599 453 "},"ό":{"x_min":68,"x_max":854,"ha":862,"o":"m 374 -25 q 149 57 230 -25 q 68 275 68 140 q 79 372 68 319 q 245 660 116 545 q 545 775 373 775 q 772 691 690 775 q 854 472 854 608 q 842 372 854 427 q 675 87 805 200 q 374 -25 545 -25 m 409 141 q 560 216 496 141 q 635 373 616 282 q 644 444 644 409 q 613 557 644 513 q 508 607 577 607 q 358 530 423 607 q 283 373 304 466 q 276 305 276 336 q 305 191 276 233 q 409 141 340 141 m 815 1039 l 567 824 l 469 824 l 637 1039 l 815 1039 "},"J":{"x_min":58,"x_max":864.71875,"ha":759,"o":"m 710 294 q 582 48 674 125 q 321 -29 491 -29 q 114 32 178 -29 q 58 199 58 87 q 80 375 58 271 l 280 375 l 264 310 q 255 235 255 264 q 275 167 255 190 q 350 145 296 145 q 459 193 421 145 q 505 307 488 231 l 656 1013 l 864 1013 l 710 294 "},"»":{"x_min":18.0625,"x_max":625,"ha":624,"o":"m 587 286 l 315 87 l 350 250 l 516 373 l 402 495 l 438 659 l 625 461 l 587 286 m 290 286 l 18 87 l 52 250 l 219 373 l 105 495 l 141 659 l 327 461 l 290 286 "},"©":{"x_min":97,"x_max":1126,"ha":1104,"o":"m 504 -6 q 195 112 303 -6 q 97 388 97 219 q 262 810 97 624 q 719 1016 444 1016 q 1028 898 920 1016 q 1126 621 1126 792 q 960 199 1126 385 q 504 -6 778 -6 m 702 933 q 316 760 470 933 q 176 405 176 603 q 256 174 176 262 q 517 76 346 76 q 902 249 748 76 q 1044 606 1044 409 q 963 835 1044 749 q 702 933 873 933 m 845 409 q 732 255 816 313 q 548 197 648 197 q 379 263 438 197 q 327 422 327 324 q 420 681 327 563 q 667 811 523 811 q 822 764 759 811 q 885 632 885 717 q 883 614 883 621 l 752 614 q 732 689 757 659 q 663 719 706 719 q 520 624 578 719 q 469 438 469 541 q 492 337 469 377 q 562 298 516 298 q 653 327 614 298 q 712 409 691 356 l 845 409 "},"ώ":{"x_min":62,"x_max":1030,"ha":1049,"o":"m 678 528 l 484 528 l 441 324 q 399 185 417 211 q 322 142 370 142 q 279 171 292 142 q 266 248 266 200 q 269 305 266 275 q 279 365 272 335 q 361 565 300 461 q 493 749 410 649 l 289 749 q 153 553 206 650 q 71 337 95 444 q 64 292 67 315 q 62 246 62 269 q 110 57 62 132 q 270 -29 166 -29 q 391 0 331 -29 q 486 78 450 28 q 551 0 502 29 q 661 -29 600 -29 q 893 96 786 -29 q 1016 337 988 205 q 1030 475 1030 405 q 1015 613 1030 546 q 973 749 1000 681 l 769 749 q 812 613 795 685 q 829 472 829 542 q 829 417 829 435 q 819 365 829 400 q 758 189 791 236 q 681 142 725 142 q 630 161 645 142 q 616 215 616 180 q 623 276 616 243 q 634 324 631 308 l 678 528 m 939 1039 l 692 824 l 593 824 l 762 1039 l 939 1039 "},"^":{"x_min":376.390625,"x_max":809.71875,"ha":828,"o":"m 809 836 l 715 836 l 625 987 l 473 836 l 376 836 l 565 1090 l 726 1090 l 809 836 "},"«":{"x_min":61.109375,"x_max":668.0625,"ha":624,"o":"m 544 87 l 358 286 l 395 461 l 668 659 l 631 495 l 465 373 l 579 250 l 544 87 m 247 87 l 61 286 l 98 461 l 370 659 l 334 495 l 168 373 l 281 250 l 247 87 "},"D":{"x_min":0,"x_max":990,"ha":968,"o":"m 616 1013 q 891 911 792 1013 q 990 646 990 810 q 976 524 990 593 q 749 147 927 294 q 340 1 572 1 l 0 1 l 216 1013 l 616 1013 m 577 837 l 384 837 l 244 183 l 411 183 q 644 277 547 183 q 765 505 734 364 q 772 549 769 527 q 775 595 775 571 q 729 763 775 698 q 577 837 677 837 "},"∙":{"x_min":112.5,"x_max":363.890625,"ha":304,"o":"m 319 528 l 112 528 l 156 735 l 363 735 l 319 528 "},"ÿ":{"x_min":2.453125,"x_max":48.234375,"ha":125,"o":"m 46 2 q 35 -7 45 -7 q 27 0 27 -7 q 36 -4 29 -4 q 44 2 44 -1 l 36 0 q 30 9 28 0 q 41 19 31 19 l 46 15 l 48 19 l 46 2 m 37 1 q 47 9 44 1 q 41 17 50 17 q 31 9 34 17 q 37 1 29 1 m 26 0 l 26 21 l 13 0 l 6 21 l 2 0 l 5 24 l 14 3 l 26 24 l 26 0 "},"w":{"x_min":185,"x_max":1217.390625,"ha":1151,"o":"m 1217 749 l 849 0 l 645 0 l 645 536 l 412 0 l 185 0 l 185 749 l 368 749 l 368 227 l 589 749 l 791 749 l 791 227 l 1024 749 l 1217 749 "},"$":{"x_min":56,"x_max":835,"ha":800,"o":"m 830 692 l 643 692 q 646 723 646 714 q 628 795 646 767 q 569 829 611 824 l 515 578 q 712 486 650 540 q 774 348 774 433 q 768 293 774 316 q 760 258 762 270 q 624 56 725 134 q 388 -22 522 -22 l 359 -155 l 275 -155 l 304 -22 q 116 46 177 -9 q 56 211 56 102 q 64 300 56 251 l 247 300 q 245 275 245 286 q 245 258 245 265 q 265 173 245 207 q 337 127 286 140 l 398 413 q 155 628 155 444 q 163 700 155 660 q 280 900 191 825 q 518 981 375 981 l 538 1070 l 621 1070 l 601 981 q 775 919 715 981 q 835 747 835 858 q 830 692 835 721 m 436 598 l 486 831 q 398 797 432 831 q 353 712 363 764 q 351 686 351 693 q 436 598 351 628 m 420 127 q 514 173 481 140 q 560 258 547 205 q 563 288 563 269 q 475 387 563 359 l 420 127 "},"\\":{"x_min":268,"x_max":360,"ha":532,"o":"m 360 -129 l 268 -129 l 268 1041 l 360 1041 l 360 -129 "},"µ":{"x_min":-59.828125,"x_max":806.84375,"ha":754,"o":"m 647 0 l 477 0 l 491 68 q 413 9 454 30 q 327 -11 372 -11 q 261 3 292 -11 q 208 43 230 18 l 138 -278 l -59 -278 l 159 749 l 358 749 l 274 358 q 264 304 267 326 q 261 254 261 281 q 282 180 261 208 q 354 152 304 152 q 487 240 442 152 q 534 401 508 283 l 608 749 l 806 749 l 647 0 "},"Ι":{"x_min":41.671875,"x_max":466.671875,"ha":413,"o":"m 250 0 l 41 0 l 258 1013 l 466 1013 l 250 0 "},"Ύ":{"x_min":166.671875,"x_max":1427.78125,"ha":1289,"o":"m 1427 1013 l 987 376 l 906 0 l 697 0 l 777 376 l 591 1013 l 800 1013 l 926 576 l 1218 1013 l 1427 1013 m 534 1035 l 265 781 l 166 781 l 356 1035 l 534 1035 "},"’":{"x_min":133.328125,"x_max":408.328125,"ha":289,"o":"m 369 835 q 284 693 351 751 q 133 626 218 635 l 148 697 q 279 831 255 724 l 177 831 l 216 1013 l 408 1013 l 369 835 "},"Ν":{"x_min":0,"x_max":1050,"ha":946,"o":"m 833 0 l 618 0 l 354 696 l 205 0 l 0 0 l 216 1013 l 433 1013 l 697 315 l 845 1013 l 1050 1013 l 833 0 "},"-":{"x_min":87.5,"x_max":513.890625,"ha":525,"o":"m 473 279 l 87 279 l 127 468 l 513 468 l 473 279 "},"Q":{"x_min":93,"x_max":1118,"ha":1096,"o":"m 1004 47 l 867 -70 l 768 41 q 635 -12 707 4 q 490 -29 564 -29 q 194 83 301 -29 q 93 368 93 190 q 108 504 93 430 q 320 882 156 732 q 719 1041 494 1041 q 1015 927 908 1041 q 1118 639 1118 817 q 1113 576 1118 611 q 1102 507 1109 540 q 918 152 1061 311 l 1004 47 m 794 298 q 852 396 829 343 q 887 503 875 449 q 899 607 899 557 q 851 781 899 716 q 689 858 796 858 q 443 746 548 858 q 316 501 347 646 q 307 405 307 457 q 358 230 307 296 q 525 157 415 157 q 654 182 589 157 l 569 287 l 707 405 l 794 298 "},"ς":{"x_min":68,"x_max":832,"ha":768,"o":"m 827 448 l 643 448 q 606 571 643 533 q 500 610 569 610 q 360 537 422 610 q 289 394 305 475 q 281 319 281 352 q 471 155 281 191 q 661 29 661 119 q 656 -15 661 9 q 609 -149 641 -83 q 536 -277 586 -199 l 364 -277 q 419 -186 405 -212 q 455 -88 445 -136 q 457 -70 457 -81 q 357 -1 457 -24 q 169 59 212 33 q 68 261 68 122 q 81 382 68 316 q 240 660 118 547 q 533 776 368 776 q 748 701 664 776 q 832 504 832 625 q 827 448 832 478 "},"M":{"x_min":-0.109375,"x_max":1236.046875,"ha":1135,"o":"m 1019 0 l 823 0 l 998 818 l 618 0 l 386 0 l 386 818 l 194 0 l 0 0 l 216 1013 l 543 1013 l 543 241 l 924 1013 l 1236 1013 l 1019 0 "},"Ψ":{"x_min":118,"x_max":1210.78125,"ha":1084,"o":"m 1142 698 q 996 340 1087 436 q 633 199 891 227 l 589 0 l 403 0 l 446 199 q 191 282 265 220 q 118 470 118 344 q 148 698 118 557 l 216 1013 l 403 1013 l 335 695 q 316 600 317 608 q 308 518 308 554 q 346 417 308 451 q 485 383 385 383 l 620 1013 l 806 1013 l 671 384 q 883 472 821 384 q 955 695 919 525 l 1023 1013 l 1210 1013 l 1142 698 "},"C":{"x_min":94,"x_max":1109,"ha":1042,"o":"m 1043 346 q 817 70 968 169 q 484 -29 666 -29 q 193 87 299 -29 q 94 375 94 197 q 107 507 94 442 q 323 886 157 738 q 724 1041 495 1041 q 998 940 888 1041 q 1109 680 1109 839 l 889 680 q 821 809 878 760 q 678 858 764 858 q 442 748 544 858 q 322 508 352 649 q 311 408 311 455 q 360 230 311 297 q 526 154 417 154 q 695 204 619 154 q 825 346 771 255 l 1043 346 "},"!":{"x_min":2.953125,"x_max":426.5625,"ha":307,"o":"m 368 739 q 298 515 354 676 q 216 282 257 398 l 121 282 q 134 584 121 473 q 158 739 148 696 l 216 1013 l 426 1013 l 368 739 m 207 0 l 2 0 l 46 203 l 250 203 l 207 0 "},"{":{"x_min":62.5625,"x_max":718.234375,"ha":599,"o":"m 440 -285 q 212 -236 280 -285 q 157 -117 157 -196 q 189 37 157 -67 q 221 183 221 141 q 189 262 221 235 q 62 293 151 293 l 93 437 q 312 585 277 437 q 368 865 340 724 q 718 1015 441 1015 l 687 872 q 505 766 540 872 q 469 546 487 656 q 284 365 432 410 q 370 316 345 351 q 396 231 396 281 q 368 91 396 187 q 340 -43 340 -4 q 369 -115 340 -89 q 471 -141 398 -141 l 440 -285 "},"X":{"x_min":0,"x_max":1111.109375,"ha":999,"o":"m 894 0 l 654 0 l 520 351 l 238 0 l 0 0 l 426 516 l 216 1013 l 455 1013 l 587 660 l 869 1013 l 1111 1013 l 688 519 l 894 0 "},"#":{"x_min":59.71875,"x_max":1173.609375,"ha":1117,"o":"m 1173 722 l 1094 582 l 901 582 l 806 418 l 1008 418 l 927 279 l 727 279 l 565 -5 l 412 -5 l 576 279 l 408 279 l 245 -5 l 93 -5 l 255 279 l 59 279 l 138 418 l 334 418 l 429 582 l 223 582 l 304 722 l 508 722 l 670 1005 l 822 1005 l 661 722 l 827 722 l 991 1005 l 1143 1005 l 980 722 l 1173 722 m 752 582 l 579 582 l 483 417 l 656 417 l 752 582 "},"ι":{"x_min":41.671875,"x_max":401.390625,"ha":389,"o":"m 241 0 l 41 0 l 201 749 l 401 749 l 241 0 "},"Ά":{"x_min":29.171875,"x_max":995.828125,"ha":1072,"o":"m 534 1035 l 265 781 l 166 781 l 356 1035 l 534 1035 m 995 0 l 776 0 l 752 209 l 359 209 l 247 0 l 29 0 l 606 1013 l 845 1013 l 995 0 m 733 377 l 683 810 l 450 377 l 733 377 "},")":{"x_min":-62.78125,"x_max":484,"ha":485,"o":"m 464 357 q 321 14 428 187 q 83 -293 231 -134 l -62 -293 q 144 23 59 -142 q 265 358 228 189 q 284 478 278 421 q 290 598 290 536 q 271 808 290 705 q 216 1013 252 910 l 362 1013 q 451 780 418 901 q 484 539 484 660 q 479 448 484 490 q 464 357 475 405 "},"ε":{"x_min":54,"x_max":741,"ha":741,"o":"m 707 260 q 573 47 678 123 q 334 -25 473 -25 q 126 27 199 -25 q 54 160 54 80 q 94 281 54 221 q 217 390 135 340 q 161 448 183 414 q 140 522 140 482 q 142 553 140 543 q 273 718 163 654 q 487 777 373 777 q 672 727 603 777 q 741 577 741 677 q 732 508 741 545 l 553 508 q 558 540 558 525 q 532 593 558 577 q 458 609 506 609 q 381 591 423 609 q 331 545 338 574 q 329 518 329 525 q 357 468 329 481 q 433 456 385 456 q 465 456 449 456 q 496 457 481 456 l 465 309 l 394 309 q 309 292 345 309 q 251 223 261 269 q 250 205 250 216 q 294 152 250 166 q 376 143 324 143 q 462 175 427 143 q 509 260 498 207 l 707 260 "},"Δ":{"x_min":0,"x_max":981.953125,"ha":1057,"o":"m 981 0 l 0 0 l 602 1013 l 811 1013 l 981 0 m 752 175 l 654 765 l 304 175 l 752 175 "},"}":{"x_min":-60.828125,"x_max":593.28125,"ha":597,"o":"m 562 293 q 348 144 382 293 q 293 -135 321 3 q -60 -285 218 -285 l -30 -141 q 146 -31 110 -141 q 187 190 166 78 q 372 365 228 324 q 285 421 310 384 q 260 510 260 457 q 288 652 260 557 q 317 780 317 746 q 290 846 317 826 q 186 872 260 872 l 216 1015 q 446 967 378 1015 q 503 849 503 927 q 467 689 503 796 q 432 542 432 581 q 466 464 432 491 q 593 437 501 437 l 562 293 "},"‰":{"x_min":150,"x_max":1738,"ha":1776,"o":"m 965 485 q 1119 426 1065 485 q 1168 289 1168 373 q 1083 76 1168 172 q 853 -29 990 -29 q 699 29 753 -29 q 651 168 651 82 q 734 380 651 286 q 965 485 826 485 m 886 120 q 981 161 944 120 q 1018 252 1018 202 q 998 309 1018 288 q 931 334 974 334 q 836 293 873 334 q 800 202 800 252 q 821 142 800 165 q 886 120 843 120 m 1115 985 l 311 -28 l 199 -28 l 1004 985 l 1115 985 m 461 985 q 614 926 560 985 q 663 790 663 873 q 579 577 663 672 q 350 472 486 472 q 200 527 251 472 q 150 668 150 583 q 232 880 150 787 q 461 985 323 985 m 429 836 q 330 795 368 836 q 293 702 293 754 q 315 644 293 668 q 380 621 337 621 q 479 661 441 621 q 517 754 517 702 q 494 812 517 788 q 429 836 472 836 m 1535 485 q 1689 426 1635 485 q 1738 289 1738 373 q 1653 76 1738 172 q 1423 -29 1560 -29 q 1269 29 1323 -29 q 1221 168 1221 82 q 1304 380 1221 286 q 1535 485 1396 485 m 1456 120 q 1551 161 1514 120 q 1588 252 1588 202 q 1568 309 1588 288 q 1501 334 1544 334 q 1406 293 1443 334 q 1370 202 1370 252 q 1391 142 1370 165 q 1456 120 1413 120 "},"a":{"x_min":37.171875,"x_max":779,"ha":786,"o":"m 699 0 l 490 0 q 483 57 483 31 q 483 75 483 65 q 486 93 486 88 q 367 6 435 38 q 228 -26 298 -26 q 88 21 139 -26 q 37 148 37 68 q 44 205 37 173 q 206 410 76 355 q 438 453 259 432 q 573 522 562 468 q 575 539 575 528 q 540 592 575 572 q 466 612 506 612 q 373 582 415 612 q 322 503 331 553 l 133 503 q 260 705 160 635 q 494 776 359 776 q 679 731 594 776 q 779 590 779 678 q 774 554 779 574 l 685 138 q 681 113 682 121 q 680 90 680 106 q 706 34 680 49 l 699 0 m 529 297 l 543 367 q 369 322 431 340 q 238 217 254 287 q 236 197 236 203 q 261 145 236 164 q 324 127 287 127 q 456 175 398 127 q 529 297 513 224 "},"—":{"x_min":63.890625,"x_max":1037.5,"ha":1039,"o":"m 1005 297 l 63 297 l 95 450 l 1037 450 l 1005 297 "},"=":{"x_min":72.21875,"x_max":934.71875,"ha":828,"o":"m 905 502 l 136 502 l 165 635 l 934 635 l 905 502 m 841 204 l 72 204 l 101 339 l 870 339 l 841 204 "},"N":{"x_min":0,"x_max":1050,"ha":949,"o":"m 833 0 l 618 0 l 354 696 l 205 0 l 0 0 l 216 1013 l 433 1013 l 697 315 l 845 1013 l 1050 1013 l 833 0 "},"ρ":{"x_min":-59.328125,"x_max":815,"ha":811,"o":"m 361 -17 q 272 0 311 -17 q 204 48 233 17 l 135 -278 l -59 -278 l 79 370 q 229 656 118 548 q 524 775 350 775 q 739 692 664 775 q 815 476 815 609 q 802 372 815 426 q 642 95 767 208 q 361 -17 517 -17 m 489 607 q 350 529 409 607 q 282 377 300 465 q 274 301 274 341 q 297 195 274 234 q 387 147 326 147 q 512 210 450 147 q 596 374 574 274 q 602 408 602 390 q 602 445 602 426 q 572 561 602 516 q 489 607 543 607 "},"2":{"x_min":63.78125,"x_max":915,"ha":828,"o":"m 909 685 q 772 453 878 540 q 554 325 726 415 q 342 168 411 250 l 790 168 l 754 0 l 63 0 q 252 301 97 174 q 534 480 263 311 q 708 674 687 576 q 711 707 711 685 q 676 791 711 758 q 592 824 642 824 q 484 781 533 824 q 397 634 427 731 l 215 634 q 384 903 259 807 q 632 988 495 988 q 833 923 751 988 q 915 746 915 858 q 915 725 915 735 q 909 685 915 715 "},"¯":{"x_min":204.171875,"x_max":1012.5,"ha":771,"o":"m 979 959 l 204 959 l 237 1112 l 1012 1112 l 979 959 "},"Z":{"x_min":0,"x_max":1020.828125,"ha":906,"o":"m 983 836 l 290 183 l 831 183 l 793 1 l 0 1 l 37 177 l 729 830 l 188 830 l 227 1013 l 1020 1013 l 983 836 "},"u":{"x_min":43,"x_max":827.84375,"ha":782,"o":"m 668 0 l 473 0 l 493 88 q 366 9 434 38 q 229 -19 297 -19 q 90 30 137 -19 q 43 166 43 80 q 51 239 43 201 l 159 749 l 358 749 l 262 296 q 257 246 257 273 q 278 173 257 200 q 347 146 300 146 q 466 192 411 146 q 534 304 520 239 l 629 749 l 827 749 l 668 0 "},"k":{"x_min":0,"x_max":834.71875,"ha":771,"o":"m 688 0 l 450 0 l 338 316 l 247 237 l 195 0 l 0 0 l 216 1013 l 412 1013 l 298 483 l 593 749 l 834 749 l 513 469 l 688 0 "},"Η":{"x_min":0,"x_max":1054.171875,"ha":950,"o":"m 837 0 l 627 0 l 723 450 l 305 450 l 209 0 l 0 0 l 216 1013 l 426 1013 l 345 635 l 763 635 l 844 1013 l 1054 1013 l 837 0 "},"Α":{"x_min":0,"x_max":966.671875,"ha":1043,"o":"m 966 0 l 747 0 l 723 209 l 330 209 l 218 0 l 0 0 l 577 1013 l 816 1013 l 966 0 m 704 377 l 654 810 l 420 377 l 704 377 "},"s":{"x_min":49,"x_max":771,"ha":775,"o":"m 729 229 q 575 33 703 105 q 335 -29 465 -29 q 135 26 212 -29 q 49 196 49 87 q 53 244 49 219 l 254 244 q 253 226 253 237 q 291 153 253 178 q 386 128 330 128 q 468 144 429 128 q 526 205 518 165 q 436 282 537 254 q 241 336 247 333 q 134 481 134 384 q 134 501 134 492 q 139 533 134 510 q 282 716 163 647 q 507 778 386 778 q 697 718 623 778 q 771 551 771 659 q 769 521 771 531 l 575 521 q 547 596 581 570 q 461 622 512 622 q 385 606 423 622 q 340 556 347 590 q 430 477 329 509 q 625 416 620 419 q 734 275 734 366 q 729 229 734 246 "},"B":{"x_min":-0.5,"x_max":965,"ha":937,"o":"m 791 547 q 875 473 845 523 q 905 359 905 423 q 899 304 905 330 q 732 75 868 158 q 460 0 612 0 l 0 0 l 216 1013 l 694 1013 q 883 964 809 1013 q 965 811 965 910 q 958 754 965 789 q 900 630 944 687 q 791 547 856 573 m 571 621 q 675 646 628 621 q 745 730 734 676 q 748 753 748 747 q 707 816 748 794 q 614 838 666 838 l 377 838 l 331 621 l 571 621 m 484 182 q 606 211 553 182 q 684 311 670 245 q 687 337 687 330 q 643 418 687 390 q 539 446 599 446 l 293 446 l 237 182 l 484 182 "},"…":{"x_min":0,"x_max":862.5,"ha":963,"o":"m 205 0 l 0 0 l 44 207 l 250 207 l 205 0 m 511 0 l 305 0 l 350 207 l 555 207 l 511 0 m 818 0 l 612 0 l 656 207 l 862 207 l 818 0 "},"?":{"x_min":151.671875,"x_max":850,"ha":785,"o":"m 844 734 q 740 563 823 634 q 591 454 665 508 q 498 293 512 387 l 314 293 l 335 391 q 433 522 348 455 q 632 725 619 668 q 635 759 635 737 q 603 838 635 809 q 525 867 572 867 q 422 828 469 867 q 346 700 368 783 l 151 700 q 301 956 172 861 q 562 1041 416 1041 q 764 981 684 1041 q 850 800 850 914 q 850 768 850 786 q 844 734 850 751 m 446 0 l 243 0 l 286 203 l 489 203 l 446 0 "},"H":{"x_min":0,"x_max":1054.171875,"ha":953,"o":"m 837 0 l 627 0 l 723 450 l 305 450 l 209 0 l 0 0 l 216 1013 l 426 1013 l 345 635 l 763 635 l 844 1013 l 1054 1013 l 837 0 "},"ν":{"x_min":159.71875,"x_max":900,"ha":828,"o":"m 900 749 l 473 0 l 266 0 l 159 749 l 400 749 l 400 211 l 688 749 l 900 749 "},"c":{"x_min":68,"x_max":856,"ha":828,"o":"m 811 282 q 638 59 755 143 q 379 -25 521 -25 q 152 57 236 -25 q 68 275 68 140 q 69 319 68 304 q 77 366 70 334 q 238 651 113 536 q 536 773 370 773 q 770 699 685 773 q 856 486 856 625 l 640 486 q 598 572 632 538 q 509 607 565 607 q 362 533 427 607 q 284 379 304 468 q 276 304 276 343 q 305 190 276 233 q 408 140 340 140 q 522 180 469 140 q 603 282 575 220 l 811 282 "},"¶":{"x_min":167.5625,"x_max":791.109375,"ha":677,"o":"m 210 892 l 242 892 l 260 761 l 335 892 l 366 892 l 334 738 l 313 738 l 341 866 l 264 738 l 245 738 l 225 871 l 196 738 l 177 738 l 210 892 m 491 854 l 463 731 q 400 690 455 690 q 375 690 388 690 q 357 696 363 695 l 359 712 l 403 706 q 443 733 435 706 l 450 764 q 402 741 435 741 q 362 778 362 741 q 363 797 362 790 q 445 860 375 860 q 462 860 455 860 q 491 854 470 860 m 468 842 l 443 842 q 381 796 393 842 q 380 782 380 790 q 409 756 380 756 q 457 796 448 756 l 468 842 m 777 988 l 713 988 l 502 -1 l 438 -1 l 649 988 l 527 988 l 316 -1 l 252 -1 l 381 602 q 220 653 284 602 q 167 764 167 697 q 171 806 167 785 q 311 989 193 918 q 534 1053 420 1053 l 791 1053 l 777 988 "},"β":{"x_min":-59.390625,"x_max":818,"ha":789,"o":"m 626 539 q 728 454 691 509 q 765 325 765 399 q 758 262 765 297 q 629 53 731 136 q 398 -29 526 -29 q 210 51 273 -29 l 139 -278 l -59 -278 l 134 627 q 272 911 173 812 q 561 1021 382 1021 q 738 969 666 1021 q 818 818 818 912 q 818 794 818 805 q 812 769 813 778 q 626 539 780 622 m 373 136 q 491 181 437 136 q 559 291 545 227 q 564 325 564 311 q 514 415 564 385 q 393 445 465 445 l 426 601 q 542 635 490 601 q 608 732 594 670 q 611 761 611 742 q 583 830 611 803 q 512 857 556 857 q 382 775 429 857 q 332 623 353 725 l 282 393 q 270 329 273 358 q 267 266 267 300 q 287 174 267 206 q 373 136 314 136 "},"Μ":{"x_min":-0.109375,"x_max":1236.046875,"ha":1132,"o":"m 1019 0 l 823 0 l 998 818 l 618 0 l 386 0 l 386 818 l 194 0 l 0 0 l 216 1013 l 543 1013 l 543 241 l 924 1013 l 1236 1013 l 1019 0 "},"Ό":{"x_min":166.453125,"x_max":1297,"ha":1271,"o":"m 670 -29 q 373 83 480 -29 q 272 369 272 190 q 287 506 272 432 q 499 883 335 733 q 898 1041 672 1041 q 1195 927 1088 1041 q 1297 640 1297 819 q 1292 575 1297 611 q 1281 505 1288 539 q 1067 127 1231 277 q 670 -29 895 -29 m 709 154 q 946 266 842 154 q 1068 507 1039 368 q 1077 554 1074 530 q 1080 604 1080 578 q 1028 782 1080 715 q 859 858 970 858 q 622 748 724 858 q 500 507 529 649 q 489 408 489 454 q 540 230 489 297 q 709 154 598 154 m 534 1034 l 265 781 l 166 781 l 356 1034 l 534 1034 "},"Ή":{"x_min":166.671875,"x_max":1465.28125,"ha":1361,"o":"m 1248 0 l 1038 0 l 1134 450 l 716 450 l 620 0 l 411 0 l 627 1013 l 837 1013 l 756 635 l 1175 635 l 1255 1013 l 1465 1013 l 1248 0 m 534 1035 l 265 781 l 166 781 l 356 1035 l 534 1035 "},"•":{"x_min":75,"x_max":806,"ha":776,"o":"m 800 508 q 643 252 768 358 q 364 147 518 147 q 155 227 235 147 q 75 434 75 308 q 75 471 75 452 q 80 508 75 490 q 238 761 112 655 q 517 868 364 868 q 725 786 645 868 q 806 580 806 704 q 806 544 806 563 q 800 508 806 526 "},"¥":{"x_min":129.171875,"x_max":1052.78125,"ha":931,"o":"m 329 625 l 216 1013 l 425 1013 l 551 576 l 843 1013 l 1052 1013 l 783 625 l 911 625 l 879 472 l 679 472 l 620 389 l 861 389 l 827 236 l 581 236 l 531 0 l 322 0 l 372 236 l 129 236 l 162 389 l 398 389 l 375 472 l 180 472 l 212 625 l 329 625 "},"(":{"x_min":58,"x_max":605.5625,"ha":486,"o":"m 326 -293 l 180 -293 q 92 -66 123 -177 q 58 182 58 59 q 62 266 58 223 q 76 357 66 309 q 219 703 112 526 q 459 1013 312 854 l 605 1013 q 400 699 483 862 q 276 358 312 528 q 250 114 250 236 q 268 -92 250 7 q 326 -293 287 -191 "},"U":{"x_min":67,"x_max":1029.453125,"ha":927,"o":"m 890 362 q 714 79 853 187 q 400 -29 576 -29 q 158 51 250 -29 q 67 269 67 132 q 78 362 67 310 l 216 1013 l 426 1013 l 291 386 q 285 325 285 351 q 324 201 285 250 q 441 153 364 153 q 603 225 533 153 q 685 386 664 289 l 819 1013 l 1029 1013 l 890 362 "},"γ":{"x_min":159.4375,"x_max":888.609375,"ha":815,"o":"m 888 749 l 465 37 l 396 -278 l 196 -278 l 265 37 q 252 154 265 94 q 228 275 240 215 l 159 749 l 366 749 l 424 284 l 681 749 l 888 749 "},"α":{"x_min":65,"x_max":881.453125,"ha":834,"o":"m 721 0 l 530 0 l 552 101 q 434 7 498 40 q 298 -25 370 -25 q 117 59 178 -25 q 65 256 65 133 q 77 372 65 315 q 209 642 112 528 q 473 775 323 775 q 592 743 539 775 q 667 656 645 712 l 687 750 l 881 750 l 721 0 m 489 601 q 346 527 407 601 q 276 375 295 464 q 268 303 268 339 q 294 194 268 235 q 388 144 326 144 q 534 217 471 144 q 606 370 587 280 q 612 416 612 402 q 612 439 612 431 q 585 551 612 510 q 489 601 554 601 "},"F":{"x_min":0,"x_max":923.609375,"ha":778,"o":"m 886 837 l 384 837 l 334 608 l 775 608 l 737 433 l 297 433 l 205 1 l 0 1 l 216 1013 l 923 1013 l 886 837 "},"­":{"x_min":63.890625,"x_max":800,"ha":801,"o":"m 768 297 l 63 297 l 95 450 l 800 450 l 768 297 "},":":{"x_min":0,"x_max":363.890625,"ha":304,"o":"m 319 528 l 112 528 l 156 735 l 363 735 l 319 528 m 206 0 l 0 0 l 44 207 l 251 207 l 206 0 "},"Χ":{"x_min":0,"x_max":1111.109375,"ha":978,"o":"m 894 0 l 654 0 l 520 351 l 238 0 l 0 0 l 426 516 l 216 1013 l 455 1013 l 587 660 l 869 1013 l 1111 1013 l 688 519 l 894 0 "},"*":{"x_min":273.609375,"x_max":870.828125,"ha":828,"o":"m 870 740 l 665 689 l 763 525 l 625 439 l 543 612 l 386 440 l 286 523 l 455 689 l 273 742 l 347 881 l 518 817 l 559 1013 l 698 1013 l 656 817 l 851 881 l 870 740 "},"†":{"x_min":133.328125,"x_max":980.5625,"ha":894,"o":"m 680 804 l 980 804 l 941 622 l 641 622 l 508 0 l 298 0 l 431 622 l 133 622 l 172 804 l 470 804 l 515 1011 l 725 1011 l 680 804 "},"°":{"x_min":207,"x_max":579,"ha":460,"o":"m 352 809 q 243 848 280 809 q 207 950 207 888 q 266 1102 207 1035 q 431 1176 331 1176 q 544 1134 505 1176 q 579 1035 579 1096 q 517 884 579 952 q 352 809 451 809 m 374 909 q 447 941 419 909 q 476 1011 476 973 q 459 1057 476 1039 q 409 1076 442 1076 q 335 1043 363 1076 q 308 974 308 1011 q 324 927 308 945 q 374 909 341 909 "},"V":{"x_min":216.671875,"x_max":1112.5,"ha":997,"o":"m 1112 1013 l 550 0 l 347 0 l 216 1013 l 475 1013 l 475 255 l 883 1013 l 1112 1013 "},"Ξ":{"x_min":0,"x_max":950,"ha":800,"o":"m 909 827 l 181 827 l 222 1013 l 950 1013 l 909 827 m 773 432 l 156 432 l 197 617 l 813 617 l 773 432 m 751 1 l 0 1 l 38 184 l 790 184 l 751 1 "}," ":{"x_min":0,"x_max":0,"ha":853},"Ϋ":{"x_min":216.671875,"x_max":1052.78125,"ha":914,"o":"m 833 1046 l 677 1046 l 713 1216 l 869 1216 l 833 1046 m 593 1046 l 436 1046 l 472 1216 l 629 1216 l 593 1046 m 1052 1013 l 612 376 l 531 0 l 322 0 l 402 376 l 216 1013 l 425 1013 l 551 576 l 843 1013 l 1052 1013 "},"0":{"x_min":136,"x_max":897,"ha":828,"o":"m 409 -25 q 201 76 273 -25 q 136 321 136 168 q 270 761 136 558 q 624 984 417 984 q 833 881 760 984 q 897 633 897 789 q 763 195 897 397 q 409 -25 617 -25 m 444 138 q 616 311 540 138 q 687 636 687 471 q 663 771 687 721 q 589 821 639 821 q 418 647 495 821 q 346 321 346 486 q 369 187 346 236 q 444 138 393 138 "},"”":{"x_min":133.328125,"x_max":686.109375,"ha":567,"o":"m 369 835 q 284 693 351 751 q 133 626 218 635 l 148 697 q 279 831 255 724 l 177 831 l 216 1013 l 408 1013 l 369 835 m 647 835 q 562 693 629 751 q 411 626 495 635 l 426 697 q 556 831 533 724 l 455 831 l 494 1013 l 686 1013 l 647 835 "},"@":{"x_min":64,"x_max":1397,"ha":1373,"o":"m 1103 -52 q 602 -211 866 -211 q 191 -77 334 -211 q 64 237 64 41 q 298 760 64 522 q 916 1020 554 1020 q 1285 899 1159 1020 q 1397 621 1397 793 q 1255 250 1397 417 q 900 74 1105 74 q 807 90 827 74 q 778 187 778 112 q 670 104 727 134 q 550 75 612 75 q 412 121 457 75 q 367 244 367 168 q 493 539 367 391 q 787 696 627 696 q 875 672 839 696 q 934 604 910 649 l 984 674 l 1107 674 q 1000 447 1045 543 q 907 238 912 260 q 918 200 902 214 q 960 187 935 187 q 1173 318 1077 187 q 1269 600 1269 450 q 1188 813 1269 733 q 908 906 1094 906 q 383 693 597 906 q 188 262 188 498 q 292 5 188 102 q 624 -103 407 -103 q 848 -68 729 -103 q 1066 25 967 -33 l 1103 -52 m 871 483 q 875 501 875 492 q 878 515 875 510 q 848 572 878 548 q 778 596 817 596 q 598 480 681 596 q 521 270 521 372 q 540 201 521 227 q 598 175 559 175 q 719 221 664 175 q 804 333 775 268 l 871 483 "},"Ί":{"x_min":166.671875,"x_max":836.109375,"ha":732,"o":"m 534 1035 l 265 781 l 166 781 l 356 1035 l 534 1035 m 619 0 l 411 0 l 627 1013 l 836 1013 l 619 0 "},"i":{"x_min":13.890625,"x_max":430.5625,"ha":326,"o":"m 391 830 l 191 830 l 230 1013 l 430 1013 l 391 830 m 213 0 l 13 0 l 173 749 l 373 749 l 213 0 "},"Β":{"x_min":-0.5,"x_max":965,"ha":961,"o":"m 791 547 q 875 473 845 523 q 905 359 905 423 q 899 304 905 330 q 732 75 868 158 q 460 0 612 0 l 0 0 l 216 1013 l 694 1013 q 883 964 809 1013 q 965 811 965 910 q 958 754 965 789 q 900 630 944 687 q 791 547 856 573 m 571 621 q 675 646 628 621 q 745 730 734 676 q 748 753 748 747 q 707 816 748 794 q 614 838 666 838 l 377 838 l 331 621 l 571 621 m 484 182 q 606 211 553 182 q 684 311 670 245 q 687 337 687 330 q 643 418 687 390 q 539 446 599 446 l 293 446 l 237 182 l 484 182 "},"υ":{"x_min":60,"x_max":815.390625,"ha":767,"o":"m 744 416 q 683 204 714 276 q 558 40 636 95 q 321 -25 466 -25 q 114 44 179 -25 q 60 213 60 102 q 64 287 60 248 q 79 369 69 326 l 159 748 l 359 748 l 279 369 q 266 298 269 320 q 264 252 264 276 q 284 171 264 201 q 357 141 304 141 q 493 247 441 141 q 545 422 520 302 l 615 749 l 815 749 l 744 416 "},"]":{"x_min":-63.890625,"x_max":565.28125,"ha":446,"o":"m 284 -300 l -63 -300 l -33 -154 l 129 -154 l 347 866 l 184 866 l 216 1013 l 565 1013 l 284 -300 "},"m":{"x_min":0.109375,"x_max":1182,"ha":1174,"o":"m 1065 0 l 866 0 l 969 483 q 972 514 972 493 q 949 573 972 550 q 887 596 926 596 q 783 554 829 596 q 724 454 737 512 l 627 0 l 433 0 l 536 481 q 539 496 539 489 q 539 508 539 504 q 450 595 539 595 q 348 554 390 595 q 294 453 307 514 l 197 0 l 0 0 l 159 749 l 348 749 l 330 665 q 438 744 379 715 q 558 774 498 774 q 669 743 620 774 q 748 659 718 712 q 854 744 794 714 q 979 775 914 775 q 1126 719 1071 775 q 1182 576 1182 664 q 1182 555 1182 567 q 1177 524 1182 544 l 1065 0 "},"χ":{"x_min":-63.890625,"x_max":898.609375,"ha":847,"o":"m 695 -299 l 484 -299 l 393 66 l 151 -299 l -63 -299 l 311 233 l 173 749 l 390 749 l 465 400 l 687 749 l 898 749 l 551 238 l 695 -299 "},"8":{"x_min":110,"x_max":901,"ha":827,"o":"m 734 517 q 811 438 786 485 q 836 338 836 392 q 715 90 836 203 q 409 -29 587 -29 q 182 44 262 -29 q 110 215 110 111 q 164 388 110 304 q 314 517 218 473 q 252 590 272 549 q 232 675 232 631 q 349 889 232 793 q 624 986 466 986 q 826 920 751 986 q 901 761 901 855 q 860 630 901 693 q 734 517 820 567 m 540 591 q 660 634 614 591 q 707 730 707 678 q 677 800 707 772 q 590 828 648 828 q 470 784 516 828 q 424 685 424 740 q 453 618 424 645 q 540 591 482 591 m 443 135 q 579 193 526 135 q 628 315 628 246 q 598 400 628 368 q 504 437 565 437 q 371 377 425 437 q 318 249 318 318 q 349 167 318 200 q 443 135 380 135 "},"ί":{"x_min":41.671875,"x_max":593.0625,"ha":389,"o":"m 241 0 l 41 0 l 201 749 l 401 749 l 241 0 m 593 1039 l 345 824 l 247 824 l 415 1039 l 593 1039 "},"Ζ":{"x_min":0,"x_max":1020.828125,"ha":886,"o":"m 983 836 l 290 183 l 831 183 l 793 1 l 0 1 l 37 177 l 729 830 l 188 830 l 227 1013 l 1020 1013 l 983 836 "},"R":{"x_min":0,"x_max":983,"ha":947,"o":"m 835 0 l 608 0 q 600 57 600 28 q 613 156 600 93 q 626 213 620 185 q 634 258 631 241 q 637 293 637 275 q 608 368 637 343 q 512 394 580 394 l 291 394 l 208 0 l 0 0 l 216 1013 l 708 1013 q 905 958 828 1013 q 983 799 983 903 q 976 735 983 772 q 905 586 958 653 q 769 486 848 514 q 840 432 819 467 q 861 346 861 396 q 845 238 861 306 q 831 178 837 205 q 824 143 826 152 q 819 95 819 116 q 823 58 819 73 q 842 32 828 43 l 835 0 m 641 838 l 387 838 l 330 573 l 574 573 q 691 604 639 573 q 762 704 749 640 q 765 733 765 714 q 730 810 765 782 q 641 838 695 838 "},"o":{"x_min":68,"x_max":854,"ha":871,"o":"m 374 -25 q 149 57 230 -25 q 68 275 68 140 q 79 372 68 319 q 245 660 116 545 q 545 775 373 775 q 772 691 690 775 q 854 472 854 608 q 842 372 854 427 q 675 87 805 200 q 374 -25 545 -25 m 409 141 q 560 216 496 141 q 635 373 616 282 q 644 444 644 409 q 613 557 644 513 q 508 607 577 607 q 358 530 423 607 q 283 373 304 466 q 276 305 276 336 q 305 191 276 233 q 409 141 340 141 "},"5":{"x_min":112,"x_max":927.109375,"ha":827,"o":"m 835 319 q 661 59 800 158 q 386 -29 535 -29 q 193 30 268 -29 q 112 211 112 95 q 116 263 112 236 l 308 263 q 306 245 306 255 q 306 231 306 235 q 340 156 306 184 q 426 129 375 129 q 547 172 492 129 q 629 308 611 222 q 635 354 635 330 q 596 451 635 414 q 504 488 558 488 q 430 472 465 488 q 361 424 394 456 l 185 424 l 361 959 l 927 959 l 892 791 l 464 791 l 397 593 q 482 634 437 619 q 569 649 527 649 q 760 571 680 649 q 841 380 841 493 q 841 359 841 369 q 835 319 841 350 "},"7":{"x_min":205.5625,"x_max":966.671875,"ha":828,"o":"m 934 808 q 615 435 738 626 q 409 0 491 244 l 205 0 q 404 422 279 236 q 716 789 511 583 l 233 789 l 269 959 l 966 959 l 934 808 "},"K":{"x_min":0,"x_max":1080.5625,"ha":996,"o":"m 900 0 l 647 0 l 415 462 l 284 355 l 208 0 l 0 0 l 216 1013 l 425 1013 l 336 596 l 820 1013 l 1080 1013 l 590 603 l 900 0 "},",":{"x_min":-51.390625,"x_max":250,"ha":303,"o":"m 206 5 q 117 -150 186 -87 q -51 -238 48 -213 l -34 -159 q 111 -1 86 -116 l 0 -1 l 44 206 l 250 206 l 206 5 "},"d":{"x_min":67,"x_max":939,"ha":836,"o":"m 722 0 l 530 0 l 552 101 q 436 8 501 41 q 298 -25 370 -25 q 119 59 179 -25 q 67 256 67 132 q 79 373 67 315 q 209 643 114 531 q 469 776 322 776 q 590 744 537 776 q 668 657 643 713 l 744 1013 l 939 1013 l 722 0 m 489 602 q 347 525 409 602 q 274 373 294 460 q 269 338 270 350 q 268 302 268 327 q 296 189 268 234 q 388 144 324 144 q 536 217 473 144 q 608 370 588 280 q 614 417 614 402 q 614 440 614 432 q 587 551 614 511 q 489 602 555 602 "},"¨":{"x_min":436.109375,"x_max":869.453125,"ha":933,"o":"m 833 1046 l 677 1046 l 713 1216 l 869 1216 l 833 1046 m 593 1046 l 436 1046 l 472 1216 l 629 1216 l 593 1046 "},"E":{"x_min":0,"x_max":951.390625,"ha":824,"o":"m 761 1 l 0 1 l 216 1013 l 951 1013 l 913 837 l 384 837 l 338 622 l 823 622 l 786 447 l 301 447 l 245 187 l 801 187 l 761 1 "},"Y":{"x_min":216.671875,"x_max":1052.78125,"ha":931,"o":"m 1052 1013 l 612 376 l 531 0 l 322 0 l 402 376 l 216 1013 l 425 1013 l 551 576 l 843 1013 l 1052 1013 "},"\"":{"x_min":129.171875,"x_max":568.0625,"ha":454,"o":"m 486 604 l 354 604 l 436 987 l 568 987 l 486 604 m 261 604 l 129 604 l 211 987 l 343 987 l 261 604 "},"‹":{"x_min":111.109375,"x_max":968.0625,"ha":828,"o":"m 795 18 l 111 352 l 140 487 l 968 822 l 934 671 l 320 420 l 827 169 l 795 18 "},"„":{"x_min":-51.390625,"x_max":527.78125,"ha":588,"o":"m 206 5 q 117 -150 186 -87 q -51 -238 48 -213 l -34 -159 q 111 -1 86 -116 l 0 -1 l 44 206 l 250 206 l 206 5 m 484 5 q 395 -150 463 -87 q 226 -238 326 -213 l 243 -159 q 388 -1 363 -116 l 277 -1 l 322 206 l 527 206 l 484 5 "},"δ":{"x_min":67,"x_max":886.4375,"ha":835,"o":"m 807 352 q 648 76 771 177 q 348 -25 525 -25 q 141 47 215 -25 q 67 243 67 120 q 68 286 67 271 q 76 333 69 301 q 214 582 108 479 q 471 691 326 691 q 252 864 369 788 l 284 1013 l 886 1013 l 853 856 l 532 856 q 728 683 662 765 q 817 440 817 571 q 815 398 817 414 q 807 352 814 383 m 537 552 q 365 498 437 552 q 271 344 293 444 q 266 293 266 322 q 297 184 266 229 q 387 140 328 140 q 527 204 468 140 q 600 344 582 261 q 607 407 607 379 q 591 492 607 455 q 537 552 575 529 "},"έ":{"x_min":54,"x_max":800.71875,"ha":741,"o":"m 707 260 q 573 47 678 123 q 334 -25 473 -25 q 126 27 199 -25 q 54 160 54 80 q 94 281 54 221 q 217 390 135 340 q 161 448 183 414 q 140 522 140 482 q 142 553 140 543 q 273 718 163 654 q 487 777 373 777 q 672 727 603 777 q 741 577 741 677 q 732 508 741 545 l 553 508 q 558 540 558 525 q 532 593 558 577 q 458 609 506 609 q 381 591 423 609 q 331 545 338 574 q 329 518 329 525 q 357 468 329 481 q 433 456 385 456 q 465 456 449 456 q 496 457 481 456 l 465 309 l 394 309 q 309 292 345 309 q 251 223 261 269 q 250 205 250 216 q 294 152 250 166 q 376 143 324 143 q 462 175 427 143 q 509 260 498 207 l 707 260 m 800 1039 l 553 824 l 455 824 l 623 1039 l 800 1039 "},"ω":{"x_min":62,"x_max":1030,"ha":1049,"o":"m 634 324 q 623 276 631 308 q 616 215 616 243 q 630 161 616 180 q 681 142 645 142 q 758 189 725 142 q 819 365 791 236 q 829 417 829 400 q 829 472 829 435 q 812 613 829 542 q 769 749 795 685 l 973 749 q 1015 613 1000 681 q 1030 475 1030 546 q 1016 337 1030 405 q 893 96 988 205 q 661 -29 786 -29 q 551 0 600 -29 q 486 78 502 29 q 391 0 450 28 q 270 -29 331 -29 q 110 57 166 -29 q 62 246 62 132 q 64 292 62 269 q 71 337 67 315 q 153 553 95 444 q 289 749 206 650 l 493 749 q 361 565 410 649 q 279 365 300 461 q 269 305 272 335 q 266 248 266 275 q 279 171 266 200 q 322 142 292 142 q 399 185 370 142 q 441 324 417 211 l 484 528 l 678 528 l 634 324 "},"´":{"x_min":129.171875,"x_max":343.0625,"ha":299,"o":"m 261 604 l 129 604 l 211 987 l 343 987 l 261 604 "},"±":{"x_min":29.171875,"x_max":930.5625,"ha":828,"o":"m 901 481 l 587 481 l 538 254 l 398 254 l 447 481 l 131 481 l 161 616 l 475 616 l 523 842 l 663 842 l 615 616 l 930 616 l 901 481 m 798 0 l 29 0 l 58 136 l 827 136 l 798 0 "},"|":{"x_min":-51.390625,"x_max":354.171875,"ha":240,"o":"m 241 463 l 98 463 l 211 985 l 354 985 l 241 463 m 91 -242 l -51 -242 l 59 280 l 202 280 l 91 -242 "},"ϋ":{"x_min":60,"x_max":815.390625,"ha":767,"o":"m 708 810 l 579 810 l 608 952 l 737 952 l 708 810 m 444 810 l 315 810 l 344 952 l 473 952 l 444 810 m 744 416 q 683 204 714 276 q 558 40 636 95 q 321 -25 466 -25 q 114 44 179 -25 q 60 213 60 102 q 64 287 60 248 q 79 369 69 326 l 159 748 l 359 748 l 279 369 q 266 298 269 320 q 264 252 264 276 q 284 171 264 201 q 357 141 304 141 q 493 247 441 141 q 545 422 520 302 l 615 749 l 815 749 l 744 416 "},"§":{"x_min":62,"x_max":748,"ha":730,"o":"m 732 469 q 570 274 705 337 q 619 146 619 223 q 614 105 619 126 q 488 -76 591 -7 q 280 -142 392 -142 q 127 -93 185 -142 q 62 60 62 -39 q 66 107 62 82 l 236 107 q 261 27 236 53 q 325 1 287 1 q 395 23 363 1 q 436 82 428 46 q 438 99 438 88 q 350 195 438 146 q 185 287 188 285 q 97 433 97 351 q 101 476 97 452 q 155 582 113 537 q 261 659 196 627 q 230 707 242 680 q 219 762 219 734 q 221 790 219 770 q 342 978 246 907 q 535 1042 430 1042 q 686 991 625 1042 q 748 843 748 940 q 748 826 748 834 q 745 806 745 812 l 580 806 q 583 830 583 823 q 559 882 583 865 q 499 900 535 900 q 432 881 463 900 q 395 829 402 862 q 471 736 385 781 q 642 648 556 691 q 737 508 737 587 q 732 469 737 490 m 490 334 q 562 422 562 377 q 545 464 562 444 q 496 502 528 484 l 336 595 q 279 551 296 572 q 263 509 263 530 q 289 456 263 481 q 351 413 310 435 l 490 334 "},"b":{"x_min":-0.28125,"x_max":815,"ha":822,"o":"m 410 -25 q 290 7 341 -25 q 213 101 240 40 l 191 0 l 0 0 l 216 1013 l 411 1013 l 334 656 q 448 744 383 713 q 581 775 513 775 q 762 688 701 775 q 815 490 815 613 q 802 375 815 432 q 672 107 767 219 q 410 -25 558 -25 m 490 600 q 344 525 406 600 q 271 372 291 462 q 265 325 265 340 q 265 302 265 311 q 291 194 265 234 q 388 146 323 146 q 534 222 472 146 q 607 375 587 286 q 614 441 614 412 q 587 551 614 511 q 490 600 555 600 "},"q":{"x_min":67,"x_max":881.890625,"ha":833,"o":"m 658 -299 l 463 -299 l 548 96 q 300 -25 441 -25 q 119 59 180 -25 q 67 256 67 133 q 79 372 67 315 q 209 643 114 530 q 470 775 322 775 q 589 742 537 775 q 670 653 641 709 l 690 750 l 881 750 l 658 -299 m 490 601 q 348 527 409 601 q 277 378 297 464 q 272 344 273 357 q 271 306 271 331 q 295 195 271 237 q 388 144 326 144 q 536 217 472 144 q 609 370 590 281 q 618 439 618 403 q 590 551 618 509 q 490 601 556 601 "},"Ω":{"x_min":0.328125,"x_max":1114,"ha":1109,"o":"m 1009 0 l 590 0 l 633 199 q 797 368 727 265 q 888 580 866 472 q 897 659 897 622 q 844 803 897 751 q 689 856 791 856 q 475 771 564 856 q 364 563 392 691 q 355 466 355 519 q 382 316 355 384 q 463 199 409 248 l 420 0 l 0 0 l 37 176 l 240 176 q 142 459 142 294 q 154 569 142 512 q 359 908 197 775 q 728 1041 521 1041 q 1008 946 902 1041 q 1114 690 1114 851 q 1101 579 1114 637 q 1010 362 1077 466 q 844 176 942 258 l 1047 176 l 1009 0 "},"ύ":{"x_min":60,"x_max":815.390625,"ha":767,"o":"m 744 416 q 683 204 714 276 q 558 40 636 95 q 321 -25 466 -25 q 114 44 179 -25 q 60 213 60 102 q 64 287 60 248 q 79 369 69 326 l 159 748 l 359 748 l 280 369 q 268 309 273 341 q 264 251 264 277 q 284 171 264 201 q 357 141 305 141 q 493 247 441 141 q 545 422 520 302 l 615 749 l 815 749 l 744 416 m 801 1039 l 554 824 l 455 824 l 623 1039 l 801 1039 "},"z":{"x_min":0,"x_max":809.71875,"ha":753,"o":"m 663 0 l 0 0 l 33 153 l 537 591 l 151 591 l 184 749 l 809 749 l 775 585 l 280 165 l 698 165 l 663 0 "},"™":{"x_min":197.15625,"x_max":1168.234375,"ha":1063,"o":"m 601 921 l 451 921 l 362 505 l 256 505 l 345 921 l 197 921 l 216 1013 l 620 1013 l 601 921 m 1059 506 l 961 506 l 1048 915 l 858 506 l 743 506 l 743 915 l 647 506 l 549 506 l 658 1013 l 821 1013 l 821 626 l 1012 1013 l 1168 1013 l 1059 506 "},"ή":{"x_min":0.109375,"x_max":782,"ha":779,"o":"m 609 -278 l 409 -278 l 552 390 q 559 426 554 396 q 564 483 564 455 q 545 568 564 536 q 477 606 523 606 q 364 554 418 606 q 295 441 309 503 l 201 0 l 0 0 l 159 749 l 361 749 l 343 665 q 461 744 395 714 q 588 774 526 774 q 734 712 683 774 q 782 562 782 655 q 773 484 782 525 l 609 -278 m 718 1039 l 470 824 l 372 824 l 540 1039 l 718 1039 "},"Θ":{"x_min":93,"x_max":1116,"ha":1091,"o":"m 491 -29 q 194 83 301 -29 q 93 369 93 190 q 108 506 93 432 q 322 883 156 732 q 719 1041 494 1041 q 1014 927 907 1041 q 1116 640 1116 818 q 1111 575 1116 611 q 1100 506 1107 539 q 888 128 1050 278 q 491 -29 717 -29 m 530 154 q 769 266 666 154 q 889 507 860 365 q 901 606 901 560 q 849 782 901 715 q 680 859 791 859 q 441 747 545 859 q 319 507 348 649 q 310 458 313 480 q 308 409 308 436 q 359 230 308 297 q 530 154 417 154 m 767 431 l 407 431 l 442 594 l 802 594 l 767 431 "},"®":{"x_min":97,"x_max":1126,"ha":1104,"o":"m 505 -6 q 195 111 303 -6 q 97 388 97 219 q 262 810 97 624 q 718 1016 444 1016 q 1028 898 920 1016 q 1126 622 1126 792 q 960 199 1126 385 q 505 -6 778 -6 m 702 933 q 316 760 470 933 q 176 405 176 603 q 256 174 176 262 q 517 76 346 76 q 902 249 748 76 q 1044 606 1044 409 q 963 835 1044 749 q 702 933 873 933 m 821 189 l 678 189 q 673 223 673 204 q 679 270 673 241 q 691 325 686 299 q 698 355 697 350 q 699 377 699 360 q 680 422 699 407 q 620 438 662 438 l 481 438 l 427 190 l 296 190 l 434 829 l 743 829 q 868 794 821 829 q 916 694 916 760 q 911 653 916 674 q 866 559 900 603 q 781 496 831 514 q 825 463 812 485 q 839 410 839 440 q 833 356 839 384 q 819 298 823 317 q 814 266 816 280 q 812 250 812 253 q 827 212 812 223 l 821 189 m 699 718 l 539 718 l 505 551 l 659 551 q 734 571 702 551 q 777 634 767 592 q 778 652 778 641 q 757 700 778 683 q 699 718 735 718 "},"~":{"x_min":140.28125,"x_max":1058.328125,"ha":949,"o":"m 1058 968 q 956 751 1029 831 q 740 657 872 657 q 565 744 648 657 q 437 831 483 831 q 327 775 369 831 q 279 657 295 732 l 140 657 q 244 871 168 787 q 458 967 331 967 q 630 879 548 967 q 766 792 712 792 q 872 850 833 792 q 919 968 898 889 l 1058 968 "},"Ε":{"x_min":0,"x_max":951.390625,"ha":824,"o":"m 761 1 l 0 1 l 216 1013 l 951 1013 l 913 837 l 384 837 l 338 622 l 823 622 l 786 447 l 301 447 l 245 187 l 801 187 l 761 1 "},"³":{"x_min":115,"x_max":621,"ha":564,"o":"m 584 555 q 481 413 565 466 q 308 365 405 365 q 173 402 224 365 q 115 520 115 444 q 120 565 115 531 l 244 565 q 269 486 244 512 q 331 461 294 461 q 404 486 370 461 q 447 554 438 512 q 450 576 450 570 q 413 627 450 614 q 324 641 377 641 l 341 722 q 427 737 392 722 q 484 803 474 758 q 486 819 486 809 q 465 864 486 847 q 413 882 445 882 q 349 857 378 882 q 303 783 319 833 l 180 783 q 285 930 207 879 q 438 976 353 976 q 568 939 515 976 q 621 841 621 902 q 618 813 621 833 q 583 744 609 771 q 513 695 556 716 q 569 651 550 678 q 589 587 589 624 q 584 555 589 572 "},"[":{"x_min":-63.890625,"x_max":563.890625,"ha":444,"o":"m 283 -300 l -63 -300 l 216 1013 l 563 1013 l 531 866 l 372 866 l 154 -154 l 313 -154 l 283 -300 "},"L":{"x_min":0,"x_max":744.453125,"ha":763,"o":"m 704 0 l 0 0 l 216 1013 l 425 1013 l 248 186 l 744 186 l 704 0 "},"σ":{"x_min":68,"x_max":1011.328125,"ha":941,"o":"m 978 594 l 839 594 q 853 480 853 542 q 840 369 853 426 q 675 83 801 191 q 373 -25 550 -25 q 148 56 229 -25 q 68 273 68 138 q 79 372 68 316 q 241 656 116 544 q 543 775 372 775 q 605 768 572 775 q 708 750 691 750 l 1011 750 l 978 594 m 409 141 q 561 216 497 141 q 636 373 616 281 q 644 444 644 409 q 614 558 644 515 q 509 608 579 608 q 358 530 425 608 q 281 373 302 465 q 275 305 275 335 q 304 191 275 233 q 409 141 338 141 "},"ζ":{"x_min":51,"x_max":809.78125,"ha":701,"o":"m 615 -32 q 570 -157 601 -97 q 491 -278 538 -218 l 313 -278 q 388 -180 359 -226 q 429 -80 416 -135 q 432 -60 432 -64 q 410 -20 432 -31 q 352 -10 388 -10 q 313 -10 340 -10 q 277 -10 287 -10 q 109 46 167 -10 q 51 201 51 103 q 55 248 51 223 q 60 283 59 272 q 215 596 92 436 q 475 856 319 732 l 230 856 l 263 1013 l 809 1013 l 786 904 q 459 660 594 800 q 265 318 302 496 q 257 245 257 275 q 439 132 257 132 q 622 27 622 132 q 615 -32 622 6 "},"θ":{"x_min":85,"x_max":836,"ha":817,"o":"m 575 1023 q 779 907 711 1023 q 836 656 836 810 q 817 486 836 569 q 665 148 776 290 q 348 -25 530 -25 q 143 79 211 -25 q 85 315 85 169 q 103 482 85 396 q 257 832 144 679 q 575 1023 395 1023 m 636 590 q 643 636 640 612 q 646 687 646 661 q 622 808 646 762 q 536 863 594 863 q 397 764 457 863 q 330 590 351 688 l 636 590 m 604 440 l 298 440 q 289 378 293 410 q 285 306 285 345 q 304 186 285 229 q 383 131 329 131 q 530 248 462 131 q 604 440 582 337 "},"Ο":{"x_min":93,"x_max":1118,"ha":1092,"o":"m 491 -29 q 194 83 301 -29 q 93 369 93 190 q 108 506 93 432 q 320 883 156 733 q 719 1041 493 1041 q 1016 927 909 1041 q 1118 640 1118 820 q 1113 575 1118 611 q 1102 506 1109 539 q 888 128 1052 278 q 491 -29 716 -29 m 530 154 q 768 266 665 154 q 888 507 859 366 q 900 606 900 560 q 848 782 900 716 q 680 858 790 858 q 441 748 543 858 q 321 507 351 650 q 310 408 310 454 q 361 230 310 297 q 530 154 419 154 "},"Γ":{"x_min":0,"x_max":920.828125,"ha":742,"o":"m 883 837 l 387 837 l 208 1 l 0 1 l 216 1013 l 920 1013 l 883 837 "}," ":{"x_min":0,"x_max":0,"ha":375},"%":{"x_min":150,"x_max":1168,"ha":1212,"o":"m 965 485 q 1119 426 1065 485 q 1168 289 1168 373 q 1083 76 1168 172 q 853 -29 990 -29 q 699 29 753 -29 q 651 168 651 82 q 734 380 651 286 q 965 485 826 485 m 886 120 q 981 161 944 120 q 1018 252 1018 202 q 998 309 1018 288 q 931 334 974 334 q 836 293 873 334 q 800 202 800 252 q 821 142 800 165 q 886 120 843 120 m 1115 985 l 311 -28 l 199 -28 l 1004 985 l 1115 985 m 461 985 q 614 926 560 985 q 663 790 663 873 q 579 577 663 672 q 350 472 486 472 q 200 527 251 472 q 150 668 150 583 q 232 880 150 787 q 461 985 323 985 m 429 836 q 330 795 368 836 q 293 702 293 754 q 315 644 293 668 q 380 621 337 621 q 479 661 441 621 q 517 754 517 702 q 494 812 517 788 q 429 836 472 836 "},"P":{"x_min":0.171875,"x_max":925,"ha":838,"o":"m 286 362 l 208 1 l 0 1 l 216 1013 l 666 1013 q 856 944 787 1013 q 925 763 925 875 q 916 682 925 724 q 784 453 886 545 q 544 362 682 362 l 286 362 m 601 837 l 389 837 l 326 545 l 527 545 q 647 578 597 545 q 716 684 702 615 q 721 718 721 700 q 688 802 721 768 q 601 837 655 837 "},"Έ":{"x_min":166.671875,"x_max":1362.5,"ha":1235,"o":"m 1172 1 l 411 1 l 627 1013 l 1362 1013 l 1325 837 l 795 837 l 750 622 l 1234 622 l 1197 447 l 712 447 l 656 187 l 1212 187 l 1172 1 m 534 1035 l 265 781 l 166 781 l 356 1035 l 534 1035 "},"Ώ":{"x_min":178.953125,"x_max":1294,"ha":1289,"o":"m 1189 0 l 770 0 l 813 199 q 976 370 906 265 q 1068 580 1046 475 q 1077 659 1077 622 q 1024 803 1077 751 q 869 856 971 856 q 655 771 744 856 q 544 563 572 691 q 535 466 535 519 q 562 316 535 384 q 643 199 589 248 l 600 0 l 180 0 l 217 176 l 420 176 q 322 459 322 294 q 334 569 322 512 q 539 908 377 775 q 908 1041 701 1041 q 1188 946 1082 1041 q 1294 690 1294 851 q 1281 579 1294 637 q 1190 362 1257 466 q 1024 176 1122 258 l 1227 176 l 1189 0 m 547 1091 l 277 838 l 178 838 l 369 1091 l 547 1091 "},"_":{"x_min":-9.71875,"x_max":726.390625,"ha":828,"o":"m 695 -333 l -9 -333 l 20 -190 l 726 -190 l 695 -333 "},"Ϊ":{"x_min":41.671875,"x_max":601.390625,"ha":503,"o":"m 565 1046 l 409 1046 l 445 1216 l 601 1216 l 565 1046 m 325 1046 l 168 1046 l 204 1216 l 361 1216 l 325 1046 m 250 0 l 41 0 l 258 1013 l 466 1013 l 250 0 "},"+":{"x_min":118.0625,"x_max":888.890625,"ha":828,"o":"m 859 353 l 558 353 l 483 0 l 343 0 l 418 353 l 118 353 l 147 489 l 447 489 l 522 840 l 662 840 l 587 489 l 888 489 l 859 353 "},"½":{"x_min":148.390625,"x_max":1176,"ha":1187,"o":"m 1171 380 q 1042 230 1153 301 q 801 100 922 164 q 842 94 805 94 q 944 94 880 94 l 970 94 l 994 94 l 1013 94 l 1030 94 q 1067 94 1048 94 q 1106 94 1087 94 l 1085 0 l 649 0 l 662 38 q 781 181 687 115 q 950 281 865 230 q 1045 376 1035 333 q 1047 385 1047 380 q 1047 391 1047 390 q 1024 440 1047 420 q 967 461 1001 461 q 898 435 930 461 q 849 354 866 409 l 734 354 q 841 505 762 451 q 996 554 912 554 q 1123 516 1071 554 q 1176 413 1176 479 q 1171 380 1176 399 m 1081 998 l 262 -27 l 148 -27 l 970 998 l 1081 998 m 362 422 l 237 422 l 317 799 l 170 799 l 187 875 q 323 902 278 875 q 378 974 359 925 l 480 974 l 362 422 "},"Ρ":{"x_min":0.171875,"x_max":925,"ha":838,"o":"m 286 362 l 208 1 l 0 1 l 216 1013 l 666 1013 q 856 944 787 1013 q 925 763 925 875 q 916 682 925 724 q 784 453 886 545 q 544 362 682 362 l 286 362 m 601 837 l 389 837 l 326 545 l 527 545 q 647 578 597 545 q 716 684 702 615 q 721 718 721 700 q 688 802 721 768 q 601 837 655 837 "},"'":{"x_min":133.328125,"x_max":408.328125,"ha":289,"o":"m 369 835 q 284 690 351 751 q 133 630 218 630 l 148 698 q 279 830 256 727 l 177 830 l 216 1013 l 408 1013 l 369 835 "},"ª":{"x_min":152.390625,"x_max":523,"ha":393,"o":"m 483 625 l 378 625 q 376 650 376 636 q 376 672 376 664 q 248 611 324 611 q 152 700 152 611 q 155 728 152 718 q 296 846 177 828 q 420 886 416 864 q 407 919 424 907 q 366 931 390 931 q 319 917 338 931 q 295 877 299 904 l 201 877 q 264 977 214 942 q 381 1013 315 1013 q 473 992 433 1013 q 523 921 523 965 q 521 903 523 908 l 477 694 q 475 669 475 677 q 487 641 475 648 l 483 625 m 398 773 l 405 808 q 296 779 351 793 q 253 733 260 762 q 260 700 248 712 q 296 689 273 689 q 362 712 334 689 q 398 773 391 736 "},"΅":{"x_min":230.5625,"x_max":786.109375,"ha":753,"o":"m 756 810 l 627 810 l 656 952 l 786 952 l 756 810 m 748 1064 l 479 810 l 380 810 l 570 1064 l 748 1064 m 359 810 l 230 810 l 259 952 l 388 952 l 359 810 "},"T":{"x_min":177.78125,"x_max":1025,"ha":894,"o":"m 986 831 l 686 831 l 508 0 l 298 0 l 476 831 l 177 831 l 216 1013 l 1025 1013 l 986 831 "},"Φ":{"x_min":99,"x_max":1067,"ha":1032,"o":"m 565 0 l 385 0 l 411 121 q 186 205 274 121 q 99 423 99 290 q 101 462 99 440 q 108 508 104 483 q 278 775 143 669 q 575 892 406 875 l 601 1013 l 782 1013 l 755 892 q 981 798 895 878 q 1067 589 1067 718 q 1065 557 1067 573 q 1057 507 1064 540 q 889 230 1021 340 q 592 121 757 121 l 565 0 m 626 285 q 779 354 711 285 q 861 508 841 418 q 868 564 868 540 q 829 677 868 632 q 721 729 791 722 l 626 285 m 446 285 l 540 729 q 386 661 450 718 q 303 517 322 604 q 298 462 298 493 q 337 337 298 389 q 446 285 377 285 "},"j":{"x_min":-111.109375,"x_max":458.328125,"ha":361,"o":"m 419 830 l 219 830 l 258 1013 l 458 1013 l 419 830 m 216 -118 q 123 -266 194 -220 q -44 -307 62 -307 l -111 -307 l -75 -137 l -54 -137 q -2 -127 -20 -137 q 23 -85 16 -117 l 201 749 l 401 749 l 216 -118 "},"Σ":{"x_min":0,"x_max":956.953125,"ha":849,"o":"m 772 1 l 0 1 l 30 141 l 480 527 l 202 863 l 234 1013 l 956 1013 l 919 837 l 494 837 l 731 524 l 336 176 l 809 176 l 772 1 "},"1":{"x_min":343.0625,"x_max":840.28125,"ha":828,"o":"m 629 0 l 434 0 l 579 674 l 343 674 l 372 810 q 555 837 494 810 q 680 985 638 875 l 840 985 l 629 0 "},"›":{"x_min":40.28125,"x_max":895.828125,"ha":828,"o":"m 866 352 l 40 18 l 72 169 l 684 420 l 179 671 l 212 822 l 895 487 l 866 352 "},"<":{"x_min":111.109375,"x_max":968.0625,"ha":828,"o":"m 795 18 l 111 352 l 140 487 l 968 822 l 934 671 l 320 420 l 827 169 l 795 18 "},"£":{"x_min":24.5,"x_max":839,"ha":814,"o":"m 724 38 q 601 -9 659 5 q 498 -24 544 -24 q 336 8 448 -24 q 243 25 278 25 q 163 12 205 25 q 71 -29 121 0 l 24 113 q 173 227 137 186 q 223 359 223 284 q 211 440 223 391 l 93 440 l 109 515 l 182 515 q 168 588 174 551 q 162 662 162 626 q 166 711 162 687 q 313 911 192 832 q 559 985 426 985 q 754 921 679 985 q 839 714 839 848 q 839 693 839 703 q 836 668 836 676 l 644 668 q 647 703 647 693 q 612 799 647 767 q 526 831 578 831 q 425 796 471 831 q 366 705 378 762 q 362 664 362 685 q 372 591 362 632 q 392 515 382 551 l 588 515 l 573 440 l 404 440 q 360 270 404 334 q 216 134 327 220 q 296 160 257 152 q 367 168 334 168 q 487 151 402 168 q 553 142 528 142 q 621 152 590 142 q 694 188 652 162 l 724 38 "},"t":{"x_min":129,"x_max":572.046875,"ha":511,"o":"m 410 -8 q 338 -8 388 -8 q 284 -8 287 -8 q 164 20 199 -8 q 129 112 129 48 q 140 202 129 148 l 227 609 l 130 609 l 159 749 l 256 749 l 299 951 l 499 951 l 456 749 l 572 749 l 542 609 l 427 609 l 337 191 q 348 152 331 162 q 397 143 365 143 q 420 143 409 143 q 442 144 431 143 l 410 -8 "},"¬":{"x_min":63.890625,"x_max":800,"ha":801,"o":"m 723 92 l 570 92 l 615 297 l 63 297 l 95 450 l 800 450 l 723 92 "},"λ":{"x_min":0,"x_max":701.390625,"ha":775,"o":"m 701 0 l 491 0 l 440 444 l 195 0 l 0 0 l 387 697 l 348 1013 l 551 1013 l 701 0 "},"W":{"x_min":253,"x_max":1508.5,"ha":1399,"o":"m 1508 1013 l 1002 0 l 807 0 l 807 776 l 490 0 l 253 0 l 253 1013 l 442 1013 l 442 298 l 751 1013 l 971 1013 l 971 298 l 1293 1013 l 1508 1013 "},">":{"x_min":40.28125,"x_max":895.828125,"ha":828,"o":"m 866 352 l 40 18 l 72 169 l 684 420 l 179 671 l 212 822 l 895 487 l 866 352 "},"v":{"x_min":159.71875,"x_max":900,"ha":828,"o":"m 900 749 l 473 0 l 266 0 l 159 749 l 400 749 l 400 211 l 688 749 l 900 749 "},"τ":{"x_min":126.390625,"x_max":777.78125,"ha":699,"o":"m 744 593 l 534 593 l 408 0 l 209 0 l 336 593 l 126 593 l 159 749 l 777 749 l 744 593 "},"ξ":{"x_min":49,"x_max":814.328125,"ha":716,"o":"m 637 -13 q 587 -157 622 -86 q 500 -298 551 -229 l 336 -298 q 402 -194 391 -212 q 450 -84 442 -124 q 453 -62 453 -68 q 429 -21 453 -32 q 367 -11 406 -11 q 331 -11 354 -11 q 300 -11 308 -11 q 120 47 192 -11 q 49 203 49 105 q 55 260 49 228 q 149 426 76 354 q 315 530 216 493 q 242 583 268 551 q 212 669 212 621 q 214 699 212 679 q 265 790 225 747 q 353 856 301 828 l 206 856 l 239 1013 l 814 1013 l 781 856 l 681 856 q 526 839 582 856 q 414 736 431 811 q 412 719 412 728 q 412 707 412 711 q 487 618 412 642 q 639 602 540 602 l 682 602 l 649 446 l 610 446 q 405 425 475 446 q 260 285 282 387 q 256 244 256 261 q 449 152 256 152 q 643 36 643 152 q 643 7 643 20 q 637 -13 639 -8 "},"&":{"x_min":50,"x_max":956.625,"ha":1007,"o":"m 909 -1 l 676 -1 l 625 83 q 280 -47 428 -47 q 70 100 123 -47 q 50 215 50 158 q 116 401 50 315 q 338 568 189 493 q 298 644 305 628 q 279 732 279 689 q 283 769 279 750 q 403 951 308 883 q 596 1013 491 1013 q 746 966 685 1013 q 808 838 808 919 q 808 815 808 826 q 802 789 803 797 q 722 644 785 711 q 583 539 674 596 l 691 359 q 776 528 747 441 l 956 528 q 771 223 898 358 l 909 -1 m 629 787 q 632 810 632 804 q 613 854 632 838 q 566 870 594 870 q 506 849 534 870 q 469 792 478 829 q 467 769 467 778 q 482 711 467 742 q 514 660 490 694 q 583 714 551 682 q 629 787 620 753 m 546 214 l 412 441 q 294 352 332 396 q 256 262 256 308 q 268 204 256 233 q 376 135 299 135 q 458 153 416 135 q 546 214 500 172 "},"Λ":{"x_min":0.5,"x_max":894.953125,"ha":974,"o":"m 894 0 l 638 0 l 638 757 l 225 0 l 0 0 l 561 1013 l 764 1013 l 894 0 "},"I":{"x_min":41.671875,"x_max":466.671875,"ha":365,"o":"m 250 0 l 41 0 l 258 1013 l 466 1013 l 250 0 "},"G":{"x_min":93,"x_max":1110,"ha":1057,"o":"m 970 -1 l 829 -1 l 829 118 q 659 7 747 44 q 473 -29 572 -29 q 188 87 291 -29 q 93 374 93 197 q 108 510 93 438 q 319 885 158 738 q 715 1041 490 1041 q 993 950 883 1041 q 1110 698 1110 854 l 884 698 q 817 813 873 768 q 683 859 761 859 q 443 747 545 859 q 321 505 350 649 q 312 457 315 479 q 310 408 310 435 q 364 229 310 296 q 538 154 423 154 q 716 219 631 154 q 840 374 794 279 l 627 374 l 665 548 l 1087 548 l 970 -1 "},"ΰ":{"x_min":60,"x_max":815.390625,"ha":767,"o":"m 757 810 l 627 810 l 657 952 l 786 952 l 757 810 m 359 810 l 230 810 l 259 952 l 389 952 l 359 810 m 739 1039 l 491 824 l 393 824 l 561 1039 l 739 1039 m 744 416 q 683 204 714 276 q 558 40 636 95 q 321 -25 466 -25 q 114 44 179 -25 q 60 213 60 102 q 64 287 60 248 q 79 369 69 326 l 159 748 l 359 748 l 280 369 q 268 309 273 341 q 264 251 264 277 q 284 171 264 201 q 357 141 305 141 q 493 247 441 141 q 545 422 520 302 l 615 749 l 815 749 l 744 416 "},"`":{"x_min":140.28125,"x_max":412.5,"ha":288,"o":"m 330 654 l 140 654 l 177 830 q 262 970 194 909 q 412 1040 330 1031 l 397 969 q 309 922 338 952 q 268 836 279 892 l 369 836 l 330 654 "},"·":{"x_min":112.5,"x_max":363.890625,"ha":304,"o":"m 319 528 l 112 528 l 156 735 l 363 735 l 319 528 "},"Υ":{"x_min":216.671875,"x_max":1052.78125,"ha":914,"o":"m 1052 1013 l 612 376 l 531 0 l 322 0 l 402 376 l 216 1013 l 425 1013 l 551 576 l 843 1013 l 1052 1013 "},"r":{"x_min":0,"x_max":595.828125,"ha":513,"o":"m 552 564 q 383 536 440 564 q 284 395 306 498 l 200 0 l 0 0 l 159 749 l 343 749 l 315 618 q 595 768 430 768 l 552 564 "},"x":{"x_min":0,"x_max":884.71875,"ha":826,"o":"m 738 0 l 504 0 l 418 237 l 230 0 l 0 0 l 334 382 l 170 749 l 398 749 l 483 522 l 662 749 l 884 749 l 570 384 l 738 0 "},"μ":{"x_min":-59.828125,"x_max":806.84375,"ha":754,"o":"m 647 0 l 477 0 l 491 68 q 413 9 454 30 q 327 -11 372 -11 q 261 3 292 -11 q 208 43 230 18 l 138 -278 l -59 -278 l 159 749 l 358 749 l 274 358 q 264 304 267 326 q 261 254 261 281 q 282 180 261 208 q 354 152 304 152 q 487 240 442 152 q 534 401 508 283 l 608 749 l 806 749 l 647 0 "},"h":{"x_min":0.109375,"x_max":783,"ha":782,"o":"m 669 0 l 469 0 l 552 390 q 560 444 557 412 q 564 491 564 476 q 548 572 564 544 q 483 607 529 607 q 366 554 425 607 q 295 441 308 501 l 201 0 l 0 0 l 216 1013 l 418 1013 l 343 665 q 463 743 398 715 q 591 772 527 772 q 737 712 687 772 q 783 566 783 658 q 780 529 783 550 q 773 484 778 509 l 669 0 "},".":{"x_min":0,"x_max":250,"ha":303,"o":"m 205 0 l 0 0 l 44 207 l 250 207 l 205 0 "},"φ":{"x_min":68,"x_max":1012,"ha":990,"o":"m 481 -278 l 306 -278 l 362 -22 q 145 60 222 -22 q 68 275 68 143 q 79 376 68 321 q 206 628 109 520 q 451 770 311 743 l 412 582 q 328 496 362 553 q 281 379 294 439 q 275 312 275 342 q 304 200 275 246 q 397 146 333 155 l 531 777 l 680 777 q 922 695 832 777 q 1012 475 1012 614 q 1000 379 1012 432 q 835 94 964 210 q 537 -22 705 -22 l 481 -278 m 572 146 q 720 225 656 146 q 794 382 774 290 q 799 414 798 404 q 801 446 801 424 q 771 560 801 517 q 671 612 737 612 l 572 146 "},";":{"x_min":-50,"x_max":365.28125,"ha":306,"o":"m 320 528 l 112 528 l 156 735 l 365 735 l 320 528 m 209 6 q 120 -151 188 -90 q -50 -237 52 -212 l -31 -158 q 70 -99 36 -134 q 113 0 105 -63 l 0 0 l 44 207 l 252 207 l 209 6 "},"f":{"x_min":106.9375,"x_max":643.0625,"ha":525,"o":"m 556 609 l 433 609 l 302 0 l 106 0 l 237 609 l 130 609 l 159 749 l 266 749 q 348 950 297 894 q 548 1017 411 1017 l 643 1017 l 609 856 l 547 856 q 480 826 497 856 q 461 749 476 818 l 586 749 l 556 609 "},"“":{"x_min":134.71875,"x_max":684.71875,"ha":567,"o":"m 325 631 l 134 631 l 172 807 q 257 948 188 886 q 406 1017 326 1010 l 393 947 q 262 813 286 921 l 363 813 l 325 631 m 602 631 l 412 631 l 450 807 q 535 948 466 886 q 684 1017 604 1010 l 670 947 q 540 813 563 921 l 641 813 l 602 631 "},"A":{"x_min":0,"x_max":966.671875,"ha":1069,"o":"m 966 0 l 747 0 l 723 209 l 330 209 l 218 0 l 0 0 l 577 1013 l 816 1013 l 966 0 m 704 377 l 654 810 l 420 377 l 704 377 "},"6":{"x_min":135,"x_max":905,"ha":829,"o":"m 902 733 l 702 733 q 674 802 702 776 q 606 828 647 828 q 482 769 539 828 q 386 571 413 700 q 587 638 479 638 q 785 564 715 638 q 848 390 848 497 q 732 109 848 235 q 415 -29 604 -29 q 196 62 267 -29 q 135 283 135 141 q 154 455 135 365 q 365 865 211 722 q 656 988 497 988 q 833 928 761 988 q 905 772 905 869 q 905 752 905 762 q 902 733 902 739 m 455 128 q 592 196 537 128 q 648 346 648 265 q 617 439 648 403 q 519 480 582 480 q 379 410 434 480 q 329 267 329 347 q 361 167 329 207 q 455 128 393 128 "},"‘":{"x_min":134.71875,"x_max":406.9375,"ha":289,"o":"m 325 631 l 134 631 l 172 807 q 257 948 188 886 q 406 1017 326 1010 l 393 947 q 262 813 286 921 l 363 813 l 325 631 "},"ϊ":{"x_min":41.671875,"x_max":540.28125,"ha":389,"o":"m 511 810 l 381 810 l 411 952 l 540 952 l 511 810 m 247 810 l 118 810 l 147 952 l 276 952 l 247 810 m 241 0 l 41 0 l 201 749 l 401 749 l 241 0 "},"π":{"x_min":87.5,"x_max":998.609375,"ha":938,"o":"m 965 593 l 876 593 l 750 0 l 548 0 l 675 593 l 412 593 l 286 0 l 87 0 l 213 593 l 126 593 l 159 749 l 998 749 l 965 593 "},"ά":{"x_min":65,"x_max":881.453125,"ha":834,"o":"m 721 0 l 530 0 l 552 101 q 434 7 498 40 q 298 -25 370 -25 q 117 59 178 -25 q 65 256 65 133 q 77 372 65 315 q 209 642 112 528 q 473 775 323 775 q 592 743 539 775 q 667 656 645 712 l 687 750 l 881 750 l 721 0 m 489 601 q 346 527 407 601 q 276 375 295 464 q 268 303 268 339 q 294 194 268 235 q 388 144 326 144 q 534 217 471 144 q 606 370 587 280 q 612 416 612 402 q 612 439 612 431 q 585 551 612 510 q 489 601 554 601 m 800 1038 l 553 824 l 455 824 l 623 1038 l 800 1038 "},"O":{"x_min":93,"x_max":1118,"ha":1094,"o":"m 491 -29 q 194 83 301 -29 q 93 369 93 190 q 108 506 93 432 q 320 883 156 733 q 719 1041 493 1041 q 1016 927 909 1041 q 1118 640 1118 820 q 1113 575 1118 611 q 1102 506 1109 539 q 888 128 1052 278 q 491 -29 716 -29 m 530 154 q 768 266 665 154 q 888 507 859 366 q 900 606 900 560 q 848 782 900 716 q 680 858 790 858 q 441 748 543 858 q 321 507 351 650 q 310 408 310 454 q 361 230 310 297 q 530 154 419 154 "},"n":{"x_min":-0.21875,"x_max":786,"ha":782,"o":"m 669 0 l 469 0 l 566 452 q 569 474 567 463 q 572 501 572 485 q 551 573 572 546 q 481 601 530 601 q 363 553 419 601 q 294 441 308 505 l 199 0 l 0 0 l 159 749 l 353 749 l 335 659 q 449 744 381 714 q 581 775 516 775 q 732 721 679 775 q 786 577 786 667 q 777 509 786 545 l 669 0 "},"3":{"x_min":115,"x_max":893,"ha":828,"o":"m 828 290 q 663 51 796 143 q 396 -32 541 -32 q 199 27 274 -32 q 115 218 115 94 q 116 257 115 243 q 124 300 117 270 l 313 300 q 309 276 310 290 q 308 252 308 262 q 344 163 308 194 q 432 132 380 132 q 549 169 498 132 q 621 282 606 211 q 626 322 626 305 q 564 412 626 386 q 434 432 519 432 l 463 568 q 598 593 545 568 q 683 701 666 626 q 686 730 686 711 q 656 802 686 775 q 580 829 626 829 q 483 791 527 829 q 410 670 431 748 l 223 670 q 377 909 256 823 q 621 986 485 986 q 814 928 735 986 q 893 772 893 870 q 893 751 893 762 q 888 719 893 740 q 830 605 874 657 q 726 522 791 559 q 807 448 780 491 q 834 345 834 405 q 828 290 834 316 "},"9":{"x_min":131,"x_max":896,"ha":828,"o":"m 875 493 q 671 90 819 232 q 390 -33 541 -33 q 205 36 279 -33 q 131 224 131 106 l 330 224 q 356 155 326 183 q 432 127 386 127 q 550 182 497 127 q 646 385 615 250 q 549 336 610 356 q 442 316 489 316 q 249 389 315 316 q 188 565 188 456 q 301 846 188 721 q 619 985 428 985 q 836 894 768 985 q 896 675 896 817 q 890 587 896 632 q 875 493 884 542 m 517 477 q 654 543 601 477 q 702 682 702 603 q 671 786 702 745 q 579 827 640 827 q 446 756 501 827 q 392 604 392 685 q 422 512 392 547 q 517 477 453 477 "},"l":{"x_min":41.671875,"x_max":456.9375,"ha":363,"o":"m 240 0 l 41 0 l 258 1013 l 456 1013 l 240 0 "},"¤":{"x_min":112.390625,"x_max":898.546875,"ha":825,"o":"m 898 792 l 737 660 q 743 624 743 633 q 743 604 743 615 q 698 460 743 527 l 798 332 l 672 225 l 568 353 q 453 331 515 331 q 349 353 394 331 l 194 225 l 112 331 l 265 459 q 261 503 261 480 q 313 658 261 585 l 209 793 l 338 897 l 446 760 q 550 777 497 777 q 600 772 579 777 q 645 760 622 768 l 813 897 l 898 792 m 522 645 q 434 610 467 645 q 401 532 401 575 q 421 482 401 502 q 481 462 441 462 q 569 496 536 462 q 603 574 603 531 q 582 624 603 604 q 522 645 562 645 "},"κ":{"x_min":0,"x_max":837.5,"ha":779,"o":"m 691 0 l 479 0 l 358 343 l 250 252 l 195 0 l 0 0 l 159 749 l 355 749 l 300 490 l 600 749 l 837 749 l 519 479 l 691 0 "},"4":{"x_min":98.609375,"x_max":863.890625,"ha":828,"o":"m 820 213 l 705 213 l 659 0 l 469 0 l 515 213 l 98 213 l 134 385 l 620 959 l 863 959 l 738 370 l 854 370 l 820 213 m 551 364 l 641 786 l 281 364 l 551 364 "},"p":{"x_min":-64.171875,"x_max":815,"ha":823,"o":"m 410 -25 q 290 4 342 -25 q 213 91 237 34 l 130 -299 l -64 -299 l 159 750 l 351 750 l 330 647 q 447 741 381 707 q 581 775 512 775 q 762 688 701 775 q 815 491 815 615 q 802 376 815 433 q 671 106 767 219 q 410 -25 559 -25 m 493 603 q 345 529 408 603 q 273 376 292 466 q 265 306 265 343 q 292 195 265 237 q 392 147 326 147 q 536 222 474 147 q 605 372 587 284 q 614 444 614 405 q 587 554 614 512 q 493 603 556 603 "},"‡":{"x_min":44.4375,"x_max":980.5625,"ha":894,"o":"m 431 623 l 133 623 l 172 805 l 470 805 l 515 1012 l 725 1012 l 680 805 l 980 805 l 941 623 l 641 623 l 591 388 l 891 388 l 852 206 l 552 206 l 508 0 l 298 0 l 343 206 l 44 206 l 83 388 l 381 388 l 431 623 "},"ψ":{"x_min":71,"x_max":1034.71875,"ha":979,"o":"m 552 143 q 695 241 638 161 q 745 352 733 294 l 830 749 l 1034 749 l 961 402 q 836 134 926 240 q 520 -22 719 -1 l 465 -278 l 288 -278 l 344 -22 q 126 80 194 -5 q 71 269 71 151 q 86 402 71 334 l 159 749 l 363 749 l 279 352 q 275 305 275 336 q 295 208 275 248 q 383 143 322 156 l 550 922 l 722 922 l 552 143 "},"η":{"x_min":0.109375,"x_max":782,"ha":779,"o":"m 609 -278 l 409 -278 l 552 390 q 559 426 554 396 q 564 483 564 455 q 545 568 564 536 q 477 606 523 606 q 364 554 418 606 q 295 441 309 503 l 201 0 l 0 0 l 159 749 l 361 749 l 343 665 q 461 744 395 714 q 588 774 526 774 q 734 712 683 774 q 782 562 782 655 q 773 484 782 525 l 609 -278 "}}}
